<svg width="69" height="69" viewBox="0 0 69 69" fill="none" xmlns="http://www.w3.org/2000/svg">
<path fill-rule="evenodd" clip-rule="evenodd" d="M4.56483 68.4714H59.342C61.8629 68.4714 63.9068 66.4274 63.9068 63.9067V60.4829C63.9068 59.8525 63.396 59.3417 62.7655 59.3417H60.4831V41.0828H58.2008V59.3417H55.9184V41.0828H53.636V59.3417H39.0697C37.8548 59.3374 36.7429 60.0249 36.2036 61.1141C36.0481 61.4284 35.7272 61.6271 35.3769 61.624H28.799C28.4492 61.6262 28.1285 61.428 27.9742 61.1141C27.4343 60.0249 26.3224 59.3373 25.1062 59.3417H10.2707V30.812C10.2707 30.1816 10.7815 29.6708 11.4119 29.6708H31.9534V27.3885H11.4119C9.52145 27.3885 7.98835 28.9217 7.98835 30.812V59.3417H5.706V28.5297C5.706 26.639 7.2391 25.1062 9.12952 25.1062H31.9534V22.8235H9.12952C5.97987 22.8274 3.42744 25.38 3.42352 28.5297V59.3417H1.14117C0.510642 59.3417 0 59.8525 0 60.4829V63.9067C0 66.4274 2.04374 68.4714 4.56483 68.4714ZM2.28235 61.624H25.1062C25.4561 61.6223 25.7767 61.82 25.9329 62.1326C26.4714 63.2227 27.5841 63.9107 28.799 63.9067H35.3769C36.5931 63.9106 37.7056 63.2227 38.2449 62.1326C38.3994 61.8196 38.7203 61.6218 39.0697 61.624H61.6243V63.9067C61.6243 65.1671 60.6026 66.1891 59.342 66.1891H4.56483C3.30415 66.1891 2.28235 65.1671 2.28235 63.9067V61.624ZM14.8355 42.224V51.3536C14.8355 51.984 15.3462 52.4948 15.9767 52.4948H47.9301C48.5605 52.4948 49.0713 51.984 49.0713 51.3536V42.224C49.0713 41.5936 48.5605 41.0828 47.9301 41.0828H15.9767C15.3462 41.0828 14.8355 41.5936 14.8355 42.224ZM17.1179 43.3651H46.7889V50.212H17.1179V43.3651ZM19.4002 45.6474H21.6827V47.9297H19.4002V45.6474ZM23.965 45.6474H26.2474V47.9297H23.965V45.6474ZM28.5297 45.6474H30.8122V47.9297H28.5297V45.6474ZM33.0946 45.6474H35.3769V47.9297H33.0946V45.6474ZM65.048 17.1601V13.6943C65.048 6.13097 58.9169 0 51.3536 0C43.7904 0 37.6593 6.13097 37.6593 13.6943V17.1601C35.7175 17.367 34.2425 19.0015 34.2357 20.9542V34.9636C34.2386 37.0818 35.9553 38.7988 38.0734 38.8005H64.6338C66.7519 38.7988 68.4686 37.0818 68.4715 34.9636V20.9542C68.4646 19.0015 66.9897 17.367 65.048 17.1601ZM39.9417 13.6943C39.9417 7.3913 45.0506 2.28231 51.3536 2.28231C57.6566 2.28231 62.7655 7.3913 62.7655 13.6943V17.1177H60.4831V13.6943C60.4831 8.65163 56.3959 4.56461 51.3536 4.56461C46.3113 4.56461 42.2241 8.65163 42.2241 13.6943V17.1177H39.9417V13.6943ZM44.5064 17.1177V13.6943C44.5064 9.91327 47.5726 6.84692 51.3536 6.84692C55.1346 6.84692 58.2008 9.91327 58.2008 13.6943V17.1177H44.5064ZM66.1891 34.9636C66.1884 35.8223 65.4919 36.5178 64.6338 36.5178H38.0734C37.2154 36.5178 36.5189 35.8223 36.5181 34.9636V20.9542C36.5189 20.0959 37.2154 19.4005 38.0734 19.4H64.6338C65.4919 19.4005 66.1884 20.0959 66.1891 20.9542V34.9636ZM51.3536 23.9646C49.6882 23.9611 48.2635 25.1599 47.9806 26.8018C47.6985 28.4433 48.6415 30.0489 50.2124 30.602V33.0943H52.4948V30.602C54.0658 30.0489 55.0087 28.4433 54.7266 26.8018C54.4437 25.1599 53.019 23.9612 51.3536 23.9646ZM51.3536 28.5297C50.7231 28.5297 50.2124 28.0189 50.2124 27.3885C50.2124 26.7577 50.7231 26.2474 51.3536 26.2474C51.9841 26.2474 52.4948 26.7577 52.4948 27.3885C52.4948 28.0189 51.9841 28.5297 51.3536 28.5297ZM20.5414 18.2589H22.8239V20.5412H20.5414V18.2589ZM20.5414 13.6943H22.8239V15.9766H20.5414V13.6943ZM20.5414 9.12922H22.8239V11.4115H20.5414V9.12922ZM20.5414 4.56461H22.8239V6.84692H20.5414V4.56461ZM25.1062 4.56461H27.3886V6.84692H25.1062V4.56461ZM29.671 4.56461H31.9534V6.84692H29.671V4.56461ZM34.2357 4.56461H36.5181V6.84692H34.2357V4.56461Z" fill="#D6B788"/>
</svg>
