<svg width="70" height="67" viewBox="0 0 70 67" fill="none" xmlns="http://www.w3.org/2000/svg">
<path fill-rule="evenodd" clip-rule="evenodd" d="M33.3594 55.2153H35.66V57.516H33.3594V55.2153ZM67.869 57.516H66.7187V16.1043C66.7187 13.5631 64.6586 11.5031 62.1174 11.5031H57.5161V4.60124C57.5161 2.05997 55.4561 0 52.9148 0H25.3072C22.7659 0 20.7058 2.05997 20.7058 4.60124V5.75132H18.4052C15.864 5.75132 13.804 7.81175 13.804 10.3526V11.5031H6.90198C4.36084 11.5031 2.30075 13.5631 2.30075 16.1043V57.516H1.15038C0.515056 57.516 0 58.0312 0 58.666V62.1172C0 64.6585 2.06009 66.7184 4.60136 66.7184H64.4181C66.9593 66.7184 69.0193 64.6585 69.0193 62.1172V58.666C69.0193 58.0312 68.5043 57.516 67.869 57.516ZM23.0065 4.60124C23.0065 3.3306 24.0365 2.30062 25.3072 2.30062H52.9148C54.1856 2.30062 55.2155 3.3306 55.2155 4.60124V23.0062C55.2155 24.2768 54.1856 25.3068 52.9148 25.3068H50.6142C50.2522 25.3068 49.9112 25.4773 49.6939 25.767L47.1632 29.1407L44.6325 25.767C44.4153 25.4773 44.0744 25.3068 43.7123 25.3068H25.3072C24.0365 25.3068 23.0065 24.2768 23.0065 23.0062V4.60124ZM16.1046 10.3526C16.1046 9.08193 17.1345 8.05194 18.4052 8.05194H20.7058V23.0062C20.7058 25.5475 22.7659 27.6074 25.3072 27.6074H40.2613V28.758C40.2613 30.0286 39.2314 31.0586 37.9607 31.0586H29.9084C29.5464 31.0586 29.2055 31.2291 28.9881 31.5188L26.4574 34.8925L23.9268 31.5188C23.7095 31.2291 23.3686 31.0586 23.0065 31.0586H18.4052C17.1345 31.0586 16.1046 30.0286 16.1046 28.758V10.3526ZM18.4052 33.3592H22.4313L25.5373 37.5002C25.9183 38.0086 26.6394 38.1117 27.1477 37.7303C27.2348 37.6648 27.3123 37.5873 27.3777 37.5002L30.4836 33.3592H37.9607C40.5019 33.3592 42.562 31.2992 42.562 28.758V27.6074H43.1371L46.243 31.7489C46.6241 32.2568 47.3452 32.3599 47.8535 31.9786C47.9406 31.9135 48.018 31.836 48.0835 31.7489L51.1894 27.6074H52.9148C55.4561 27.6074 57.5161 25.5475 57.5161 23.0062V18.405H59.8168V50.6141H55.2155V49.4636C55.2148 47.5512 54.2639 45.7644 52.6778 44.6955C54.4964 42.9206 54.5317 40.0076 52.7567 38.1887C50.9815 36.3703 48.0685 36.335 46.2499 38.1104C44.4313 39.8852 44.3962 42.7982 46.1711 44.6171C46.197 44.6437 46.2233 44.6698 46.2499 44.6955C44.6639 45.7644 43.7129 47.5512 43.7123 49.4636V50.6141H25.3071V49.4636C25.3066 47.5512 24.3555 45.7644 22.7696 44.6955C24.588 42.9206 24.6233 40.0076 22.8483 38.1887C21.0733 36.3703 18.1601 36.335 16.3415 38.1104C14.5231 39.8852 14.4878 42.7982 16.2627 44.6171C16.2886 44.6437 16.3149 44.6698 16.3415 44.6955C14.7555 45.7644 13.8045 47.5512 13.8039 49.4636V50.6141H9.20259V18.405H13.8039V28.758C13.8039 31.2993 15.864 33.3592 18.4052 33.3592L18.4052 33.3592ZM49.4639 46.0129C51.3698 46.0129 52.9148 47.5576 52.9148 49.4636V50.6141H46.0129V49.4636C46.0129 47.5576 47.558 46.0129 49.4639 46.0129ZM47.1632 41.4116C47.1632 40.1405 48.1932 39.111 49.4639 39.111C50.7346 39.111 51.7645 40.1405 51.7645 41.4116C51.7645 42.6823 50.7346 43.7122 49.4639 43.7122C48.1932 43.7122 47.1632 42.6823 47.1632 41.4116ZM19.5556 46.0129C21.4615 46.0129 23.0065 47.5576 23.0065 49.4636V50.6141H16.1046V49.4636C16.1046 47.5576 17.6496 46.0129 19.5556 46.0129ZM17.2549 41.4116C17.2549 40.1405 18.2849 39.111 19.5556 39.111C20.8262 39.111 21.8562 40.1405 21.8562 41.4116C21.8562 42.6823 20.8262 43.7122 19.5556 43.7122C18.2849 43.7122 17.2549 42.6823 17.2549 41.4116ZM4.60136 16.1043C4.60136 14.8337 5.63134 13.8037 6.90198 13.8037H13.804V16.1043H8.05235C7.41703 16.1043 6.90198 16.6196 6.90198 17.2549V51.7642C6.90198 52.3995 7.41703 52.9147 8.05235 52.9147H60.9671C61.6023 52.9147 62.1174 52.3995 62.1174 51.7642V17.2549C62.1174 16.6196 61.6023 16.1043 60.9671 16.1043H57.5161V13.8037H62.1174C63.3881 13.8037 64.4181 14.8337 64.4181 16.1043V57.516H44.8626C44.5575 57.516 44.265 57.6374 44.0493 57.8529L42.0857 59.8166H26.9336L24.9701 57.8529C24.7544 57.6374 24.4619 57.516 24.1568 57.516H4.60136V16.1043ZM66.7187 62.1172C66.7187 63.3878 65.6888 64.4178 64.4181 64.4178H4.60136C3.33073 64.4178 2.30075 63.3878 2.30075 62.1172V59.8166H23.6805L25.6442 61.7803C25.8599 61.9957 26.1523 62.1172 26.4574 62.1172H42.562C42.8671 62.1172 43.1596 61.9957 43.3753 61.7803L45.3388 59.8166H66.7187V62.1172ZM33.3594 5.75132H51.7645V8.05194H33.3594V5.75132ZM26.4574 10.3526H51.7645V12.6532H26.4574V10.3526ZM26.4574 14.9543H51.7645V17.2549H26.4574V14.9543ZM26.4574 19.5555H47.1632V21.8561H26.4574V19.5555ZM28.7581 5.75132H31.0588V8.05194H28.7581V5.75132Z" fill="white"/>
</svg>
