<svg width="63" height="68" viewBox="0 0 63 68" fill="none" xmlns="http://www.w3.org/2000/svg">
<path fill-rule="evenodd" clip-rule="evenodd" d="M47.2108 41.6161C47.2108 40.9954 46.7072 40.4912 46.0868 40.4912H39.3424C38.7219 40.4912 38.2184 40.9954 38.2184 41.6161C38.2184 42.2367 38.7219 42.7409 39.3424 42.7409H46.0868C46.7072 42.7409 47.2108 42.2372 47.2108 41.6161ZM42.7144 12.3727V6.74876C42.7144 6.12765 42.2109 5.62389 41.5904 5.62389C40.97 5.62389 40.4665 6.12765 40.4665 6.74876V12.3727C40.4665 15.4736 42.9877 17.9965 46.0868 17.9965H56.2034V39.3668C56.2034 39.9874 56.7069 40.4912 57.3274 40.4912C57.9478 40.4912 58.4515 39.9874 58.4515 39.3668V16.8717C58.4515 16.2506 57.9478 15.7468 57.3274 15.7468H46.0868C44.2275 15.7468 42.7144 14.2328 42.7144 12.3727ZM46.0867 26.9941H37.0941C36.4737 26.9941 35.97 27.4983 35.97 28.119C35.97 28.7396 36.4737 29.2439 37.0941 29.2439H46.0867C46.7071 29.2439 47.2108 28.7396 47.2108 28.119C47.2108 27.4983 46.7072 26.9941 46.0867 26.9941ZM33.7221 28.119C33.7221 27.4983 33.2184 26.9941 32.598 26.9941H25.8536C25.2331 26.9941 24.7296 27.4983 24.7296 28.119C24.7296 28.7396 25.2331 29.2439 25.8536 29.2439H32.598C33.2184 29.2439 33.7221 28.7401 33.7221 28.119ZM25.8535 33.7429C25.233 33.7429 24.7294 34.2467 24.7294 34.8678C24.7294 35.4884 25.233 35.9922 25.8535 35.9922H28.1017C28.7221 35.9922 29.2256 35.4884 29.2256 34.8678C29.2256 34.2467 28.7221 33.7429 28.1017 33.7429H25.8535ZM25.8535 22.4951H37.0941C37.7146 22.4951 38.2181 21.9913 38.2181 21.3707C38.2181 20.7496 37.7146 20.2458 37.0941 20.2458H25.8535C25.233 20.2458 24.7294 20.7496 24.7294 21.3707C24.7294 21.9913 25.233 22.4951 25.8535 22.4951ZM32.5979 35.9922H43.8385C44.4589 35.9922 44.9625 35.4884 44.9625 34.8678C44.9625 34.2467 44.4589 33.7429 43.8385 33.7429H32.5979C31.9774 33.7429 31.4738 34.2467 31.4738 34.8678C31.4738 35.4884 31.9774 35.9922 32.5979 35.9922ZM39.3423 47.2399C38.7218 47.2399 38.2183 47.7437 38.2183 48.3648C38.2183 48.9855 38.7218 49.4892 39.3423 49.4892H41.5904C42.2109 49.4892 42.7144 48.9855 42.7144 48.3648C42.7144 47.7437 42.2109 47.2399 41.5904 47.2399H39.3423ZM34.846 40.4912H25.8535C25.233 40.4912 24.7294 40.9954 24.7294 41.6161C24.7294 42.2367 25.233 42.7409 25.8535 42.7409H34.846C35.4665 42.7409 35.97 42.2367 35.97 41.6161C35.97 40.9954 35.4665 40.4912 34.846 40.4912ZM34.846 47.2399H25.8535C25.233 47.2399 24.7294 47.7437 24.7294 48.3648C24.7294 48.9855 25.233 49.4892 25.8535 49.4892H34.846C35.4665 49.4892 35.97 48.9855 35.97 48.3648C35.97 47.7437 35.4665 47.2399 34.846 47.2399ZM61.6089 46.3301L59.3608 44.0803C57.633 42.3518 55.0005 42.355 53.2752 44.0803L38.5475 58.8168C38.3373 59.0272 38.2183 59.3142 38.2183 59.6121V66.3609C38.2183 66.9816 38.7218 67.4853 39.3423 67.4853H46.0867C46.3846 67.4853 46.6712 67.3661 46.8814 67.1562L61.6089 52.4192C63.3997 50.6274 63.3997 48.1228 61.6089 46.3301ZM51.8216 48.7155L53.6044 50.4995L43.8385 60.2713L42.0557 58.4877L51.8216 48.7155ZM40.4665 65.236V60.0779L45.6214 65.236H40.4665ZM47.2108 63.6454L45.4281 61.8619L55.194 52.0896L56.9768 53.8737L47.2108 63.6454ZM60.0196 50.8291L58.566 52.2835L53.411 47.1254L54.8645 45.6709C55.7525 44.7835 56.8789 44.7789 57.7713 45.6709L60.0196 47.9206C60.9289 48.8315 60.9289 49.9192 60.0196 50.8291ZM34.846 65.236H5.62023C3.76104 65.236 2.24809 63.722 2.24809 61.8619V5.62389C2.24809 3.76378 3.76104 2.24974 5.62023 2.24974H41.1251L52.0363 13.1675C52.4758 13.6075 53.1863 13.6075 53.6258 13.1675C54.0653 12.7279 54.0653 12.0169 53.6258 11.5774L42.3852 0.329577C42.175 0.118263 41.8882 0 41.5904 0H5.62023C2.52125 0 0 2.52294 0 5.62389V61.8619C0 64.9628 2.52125 67.4858 5.62037 67.4858H34.8461C35.4666 67.4858 35.9702 66.9816 35.9702 66.3609C35.9702 65.7402 35.4665 65.236 34.846 65.236ZM34.846 53.9883H25.8535C25.233 53.9883 24.7294 54.4925 24.7294 55.1131C24.7294 55.7338 25.233 56.238 25.8535 56.238H34.846C35.4665 56.238 35.97 55.7338 35.97 55.1131C35.97 54.4925 35.4665 53.9883 34.846 53.9883ZM20.2332 21.3702C20.2332 20.7496 19.7296 20.2458 19.1092 20.2458H12.3648C11.7444 20.2458 11.2407 20.7496 11.2407 21.3702V28.119C11.2407 28.7396 11.7444 29.2439 12.3648 29.2439H19.1092C19.7296 29.2439 20.2332 28.7396 20.2332 28.119V21.3702ZM17.985 26.9941H13.4888V22.4951H17.985V26.9941ZM12.3646 56.238H19.1091C19.7294 56.238 20.2331 55.7342 20.2331 55.1131V48.3648C20.2331 47.7437 19.7294 47.2399 19.1091 47.2399H12.3646C11.7443 47.2399 11.2406 47.7437 11.2406 48.3648V55.1131C11.2406 55.7342 11.7443 56.238 12.3646 56.238ZM13.4888 49.4892H17.985V53.9883H13.4888V49.4892ZM13.8181 42.4114C14.0294 42.6227 14.316 42.7409 14.6129 42.7409C14.65 42.7409 14.686 42.7396 14.7241 42.7349C15.0591 42.7024 15.3615 42.5204 15.5481 42.2403L20.0443 35.4916C20.3882 34.9741 20.2489 34.2755 19.7329 33.9317C19.2146 33.5861 18.5189 33.7268 18.1738 34.2429L14.4386 39.8499L13.1593 38.5714C12.7199 38.1314 12.0093 38.1314 11.57 38.5714C11.1305 39.011 11.1303 39.722 11.57 40.1616L13.8181 42.4113L13.8181 42.4114Z" fill="white"/>
</svg>
