<svg width="67" height="68" viewBox="0 0 67 68" fill="none" xmlns="http://www.w3.org/2000/svg">
<path fill-rule="evenodd" clip-rule="evenodd" d="M59.3757 56.7303L58.2777 56.2857C63.7993 50.0833 66.8302 42.1162 66.8302 33.7429C66.8302 26.8928 64.7794 20.3017 61.0428 14.7608C60.9974 14.6705 60.9413 14.5898 60.876 14.5188C59.2391 12.1366 57.2904 9.95148 55.0543 8.0304C54.6103 7.64902 53.9445 7.70357 53.5669 8.15187C53.1893 8.60017 53.2431 9.27261 53.6869 9.65399C55.4808 11.1946 57.0776 12.9172 58.4628 14.7814C56.2292 15.6629 53.5481 16.4096 50.5551 16.9996C49.7288 14.5133 48.7133 12.1957 47.5195 10.1046C45.9106 7.28598 44.0598 5.01608 42.0428 3.34665C45.182 4.25333 48.1726 5.65735 50.9169 7.52939C51.3999 7.8585 52.0557 7.73062 52.382 7.2429C52.7082 6.75518 52.5812 6.09327 52.0982 5.7637C46.5718 1.99305 40.1112 0 33.4152 0C24.4895 0 16.0984 3.50983 9.78721 9.88318C3.4756 16.2565 0 24.7302 0 33.7429C0 42.1267 3.03494 50.0948 8.56571 56.2999L7.4815 56.7285C7.08225 56.8742 3.68704 58.2416 3.68704 62.6008V66.4191C3.68704 67.0077 4.15935 67.4858 4.74232 67.4858H10.8123H11.7572H12.8828H18.2818H20.2743C20.3252 67.4858 20.3749 67.4807 20.424 67.4739C20.473 67.4807 20.5225 67.4858 20.5735 67.4858H24.8671C25.45 67.4858 25.9223 67.0086 25.9223 66.42C25.9223 65.8315 25.45 65.3548 24.8671 65.3548H21.6288V61.6437C21.6288 57.7282 24.6742 56.6019 24.7972 56.5584C24.8135 56.5529 24.8296 56.5469 24.8458 56.5405L29.9844 54.5081C29.9955 54.5204 30.006 54.5333 30.0178 54.5447L32.7487 57.2304C32.9459 57.4243 33.2101 57.5329 33.485 57.5329C33.4904 57.5329 33.496 57.5329 33.5015 57.5329C33.7822 57.5284 34.05 57.411 34.2446 57.2065L36.8667 54.459L41.9985 56.5373C42.0171 56.5451 42.0295 56.5497 42.0485 56.5561C42.1781 56.6019 45.224 57.7286 45.224 61.6437V65.3547H37.5058H29.3464H28.165C27.5821 65.3547 27.1098 65.8315 27.1098 66.42C27.1098 67.0086 27.5823 67.4858 28.165 67.4858H29.3464H37.5058H46.2793H46.2794H46.2795H47.6258H48.5706H49.6963H55.095H62.1103C62.6931 67.4858 63.1654 67.0013 63.1654 66.4127V62.6008C63.1657 58.2585 59.7962 56.8848 59.3757 56.7303L59.3757 56.7303ZM56.1829 55.4372L55.1427 55.0159V54.41C56.2922 53.7288 57.1758 52.6388 57.5956 51.3379C59.1306 51.2155 60.3433 49.9174 60.3433 48.3364C60.3433 47.3963 59.914 46.5556 59.2439 46.0023V44.1087C59.2439 40.4573 56.5304 37.4361 53.0333 36.9873C53.0731 36.2649 53.1007 35.537 53.114 34.8086H64.7004C64.4467 42.5214 61.4464 49.8069 56.1829 55.4372H56.1829ZM52.3732 53.0385H51.4108C49.5463 53.0385 48.0294 51.507 48.0294 49.6245V46.8049C49.404 46.6541 51.8387 46.1692 53.7146 44.5873C54.1348 45.3147 54.7848 46.1018 55.7547 46.5615V49.624C55.7546 51.507 54.2377 53.0385 52.3732 53.0385ZM53.0324 55.1282V55.7191L51.8566 56.9508L50.7518 55.8644V55.1282C50.9681 55.1544 51.1878 55.1695 51.4109 55.1695H52.3733C52.5966 55.1695 52.816 55.1544 53.0324 55.1282ZM46.9776 44.7431C46.9765 44.7431 46.9753 44.7431 46.974 44.7431C46.9377 44.7431 46.9018 44.7449 46.8663 44.7487C46.855 44.7496 46.8439 44.7524 46.8326 44.7537C46.8089 44.7569 46.7851 44.7597 46.7619 44.7647C46.7459 44.7679 46.7307 44.7725 46.715 44.7766C46.6968 44.7811 46.6785 44.7853 46.661 44.7908C46.6495 44.7945 46.6386 44.7995 46.6273 44.8032V44.1087C46.6273 41.324 48.8707 39.0587 51.6282 39.0587H52.1328C54.8902 39.0587 57.1332 41.324 57.1332 44.1087V44.7944C57.1133 44.788 57.0932 44.7829 57.0729 44.778C57.0633 44.7752 57.0536 44.772 57.0438 44.7697C55.5727 44.4319 55.0916 42.4493 55.088 42.4342C54.9965 42.0258 54.6766 41.7095 54.2703 41.6256C53.864 41.5413 53.4469 41.7058 53.2039 42.0451C51.293 44.7124 47.0335 44.7431 46.9775 44.7431L46.9776 44.7431ZM57.865 49.0547V47.6186C58.0872 47.779 58.2327 48.0407 58.2327 48.3369C58.2327 48.633 58.0872 48.8942 57.865 49.0547ZM59.7012 16.5746C62.7578 21.3427 64.5081 26.8937 64.7001 32.6771H53.1134C53.0279 27.8811 52.3641 23.2546 51.1806 19.0417C54.4248 18.3912 57.3175 17.5597 59.7012 16.5746ZM51.0029 32.6776H40.2029C40.2017 32.6772 40.2006 32.6776 40.1997 32.6776C38.76 31.0705 36.7363 30.0089 34.4704 29.832V20.6689C39.6485 20.6167 44.6456 20.1821 49.0975 19.4262C50.2626 23.5008 50.9163 27.9998 51.0029 32.6776H51.0029ZM41.6945 43.8044C41.6945 44.431 41.2753 44.9595 40.7052 45.1222V42.4865C41.2753 42.6493 41.6945 43.1778 41.6945 43.8044ZM34.4703 2.19061C38.6695 2.64349 42.6203 5.78937 45.6911 11.1689C46.7688 13.0566 47.694 15.1417 48.4569 17.3791C44.2024 18.0823 39.4279 18.4875 34.4702 18.5374V2.19061H34.4703ZM33.8011 31.9346C37.3954 31.9346 40.3195 34.8875 40.3195 38.5174V39.8192C40.3124 39.8137 40.305 39.8087 40.2978 39.8032C40.2826 39.7908 40.267 39.7789 40.251 39.7679C40.2386 39.7591 40.2258 39.7509 40.2131 39.7431C40.1972 39.7326 40.1816 39.7229 40.1651 39.7133C40.1501 39.705 40.1346 39.6973 40.1191 39.6895C40.1044 39.6822 40.0898 39.6748 40.0747 39.6679C40.0561 39.6597 40.0369 39.6528 40.0179 39.6455C40.0047 39.6404 39.9917 39.6354 39.9784 39.6308C39.9572 39.624 39.9352 39.618 39.9135 39.6125C39.9038 39.6097 39.8942 39.6065 39.8843 39.6037C37.8798 39.1435 37.2448 36.5046 37.2395 36.4817C37.148 36.0733 36.828 35.757 36.4217 35.6731C36.0154 35.5887 35.5983 35.7533 35.3553 36.0925C32.8842 39.5423 27.4257 39.5776 27.3537 39.5776C27.3536 39.5776 27.3534 39.5776 27.3534 39.5776C27.3519 39.5776 27.3508 39.5776 27.3496 39.5776C27.3134 39.5776 27.2773 39.5794 27.242 39.5826C27.2308 39.5839 27.2201 39.5863 27.2091 39.5881C27.1852 39.5914 27.1609 39.5941 27.1374 39.5992C27.1223 39.6019 27.1078 39.6069 27.0927 39.6107C27.074 39.6152 27.0547 39.6194 27.0365 39.6253C27.0194 39.6308 27.0029 39.6377 26.9862 39.6437C26.9709 39.6497 26.955 39.6547 26.9399 39.6606C26.9205 39.6694 26.9022 39.6789 26.8837 39.6881C26.8718 39.6941 26.8596 39.6991 26.8479 39.7055C26.8289 39.7156 26.8111 39.7275 26.7927 39.739C26.7823 39.7458 26.7714 39.7518 26.761 39.7587C26.744 39.7702 26.728 39.783 26.7114 39.7959C26.701 39.8036 26.6899 39.8114 26.6796 39.8197C26.67 39.828 26.6609 39.8371 26.6514 39.8454V38.517C26.6514 34.8875 29.5755 31.9346 33.1698 31.9346H33.8011L33.8011 31.9346ZM15.8273 32.6771C15.914 27.9989 16.568 23.499 17.7333 19.4239C22.1915 20.1807 27.1939 20.6167 32.3599 20.6689V29.843C30.1479 30.0525 28.176 31.1072 26.7656 32.6845C26.7273 32.6804 26.6882 32.6777 26.6487 32.6777H15.8274V32.6772L15.8273 32.6771ZM26.2944 42.4755V45.1332C25.7027 44.9856 25.2624 44.447 25.2624 43.8044C25.2623 43.1622 25.7027 42.6231 26.2944 42.4755ZM32.3599 2.19061V18.5374C27.414 18.487 22.6356 18.0804 18.3744 17.3759C19.137 15.1399 20.0619 13.0556 21.1391 11.1689C24.2099 5.78937 28.1608 2.64349 32.3599 2.19061ZM24.7759 3.35627C22.7633 5.02479 20.9165 7.29103 19.3106 10.1046C18.1172 12.1953 17.1019 14.5119 16.2759 16.9968C13.2867 16.4078 10.6099 15.6629 8.38048 14.7851C12.422 9.3565 18.1521 5.27965 24.7759 3.35627ZM7.13847 16.5797C9.51629 17.5611 12.4093 18.3894 15.6505 19.0394C14.4662 23.2528 13.8025 27.8802 13.7166 32.6771H2.13012C2.32526 26.7585 4.13898 21.2465 7.13847 16.5797ZM13.9381 55.1282C14.1545 55.1548 14.374 55.1695 14.5973 55.1695H15.5598C15.7828 55.1695 16.0024 55.1548 16.2186 55.1282V55.7191L15.043 56.9508L13.9381 55.8644V55.1282ZM15.5598 53.0385H14.5973C12.7327 53.0385 11.2158 51.507 11.2158 49.624V46.8059C12.5902 46.656 15.024 46.1701 16.901 44.5873C17.3213 45.3147 17.9713 46.1022 18.941 46.5615V49.6245C18.9409 51.507 17.4242 53.0385 15.5598 53.0385ZM18.275 42.4338C18.1834 42.0259 17.8635 41.7096 17.4572 41.6257C17.0509 41.5413 16.6337 41.7054 16.3909 42.0451C14.4786 44.7138 10.2156 44.7431 10.1642 44.7431C10.1629 44.7431 10.1619 44.7431 10.1606 44.7431C10.1244 44.7431 10.0882 44.7449 10.0529 44.7487C10.0418 44.75 10.0311 44.7524 10.0201 44.7537C9.99618 44.7569 9.97186 44.7602 9.94837 44.7647C9.93343 44.7679 9.91876 44.7725 9.90369 44.7762C9.88496 44.7812 9.86595 44.7853 9.84747 44.7909C9.83608 44.7946 9.82547 44.7996 9.8142 44.8033V44.1088C9.8142 41.3241 12.0574 39.0588 14.8149 39.0588H15.3197C18.0771 39.0588 20.3202 41.3241 20.3202 44.1088V44.7945H20.3199C20.2997 44.7881 20.2786 44.783 20.258 44.7776C20.2487 44.7753 20.2396 44.7721 20.2303 44.7698C18.7596 44.432 18.2785 42.449 18.2749 42.4339L18.275 42.4338ZM2.12999 34.8086H13.7164C13.7295 35.5425 13.7577 36.2754 13.7977 37.0024C10.3569 37.5021 7.70339 40.4976 7.70339 44.1087V45.9941C7.02671 46.5473 6.5927 47.3912 6.5927 48.3364C6.5927 49.9293 7.82398 51.2338 9.37547 51.3397C9.79535 52.6397 10.6784 53.7293 11.8276 54.41V55.01L10.6749 55.4656C5.39361 49.8307 2.38379 42.5379 2.12999 34.8086ZM9.10523 47.5947V49.0781C8.86378 48.9208 8.703 48.6476 8.703 48.3369C8.703 48.0256 8.86378 47.7524 9.10523 47.5947ZM19.5181 61.6437V65.3548H18.2815H12.8827H11.7571H10.8123H5.79761V62.6008C5.79761 59.63 8.09748 58.7692 8.18697 58.7371C8.20326 58.7316 8.21956 58.7256 8.23558 58.7192L12.2155 57.1451L14.3303 59.2253C14.5275 59.4192 14.7916 59.5273 15.0665 59.5273C15.0721 59.5273 15.0776 59.5273 15.0832 59.5273C15.364 59.5233 15.6315 59.4054 15.8263 59.2014L17.8238 57.108L20.2931 58.1077C19.8248 59.0754 19.5181 60.247 19.5181 61.6437H19.5181ZM29.6989 52.3326L24.0982 54.5475C23.385 54.795 22.3981 55.3666 21.5224 56.3095L18.3289 55.0159V54.41C19.4787 53.7293 20.362 52.6388 20.7818 51.3379C22.3171 51.2155 23.5298 49.9174 23.5298 48.3364C23.5298 47.3963 23.1005 46.5556 22.4302 46.0023V44.1087C22.4302 40.3495 19.5547 37.2582 15.9087 36.9543C15.8685 36.2434 15.8406 35.5265 15.8272 34.8082H25.3636C24.8368 35.9344 24.5408 37.1913 24.5408 38.5169V41.0032C23.6979 41.6426 23.1517 42.6603 23.1517 43.8044C23.1517 45.7167 24.6785 47.2752 26.566 47.3046C27.0612 48.9937 28.2018 50.4046 29.6987 51.2458V52.3326H29.6989H29.6989ZM21.0513 49.0547V47.6181C21.2736 47.7785 21.4195 48.0403 21.4195 48.3369C21.4195 48.633 21.2736 48.8947 21.0513 49.0547ZM35.1905 53.0761C35.1905 53.0774 35.1905 53.0793 35.1905 53.0801V53.1448L33.4615 54.9563L31.8094 53.3313V51.9906C32.1638 52.0506 32.5271 52.0832 32.8982 52.0832H34.1019C34.4728 52.0832 34.836 52.0506 35.1905 51.991V53.076V53.0761ZM34.1019 49.9522H32.8982C30.4206 49.9522 28.4048 47.9165 28.4048 45.4147V41.6527C30.0888 41.496 33.4188 40.9051 35.8512 38.6998C36.3647 39.6808 37.2253 40.8198 38.595 41.4107V45.4147C38.5949 47.9165 36.5794 49.9522 34.1019 49.9522ZM45.3367 56.3168C44.4614 55.3716 43.473 54.7978 42.7583 54.5489L37.3006 52.3385V51.2458C38.7979 50.4046 39.9383 48.9933 40.4335 47.3037C42.301 47.2514 43.8046 45.7025 43.8046 43.8044C43.8046 42.6671 43.2642 41.6546 42.4297 41.0147V38.5169C42.4297 37.1913 42.1337 35.9344 41.6068 34.8086H51.0026C50.9889 35.5292 50.9609 36.2493 50.9202 36.9635C47.3299 37.3233 44.5165 40.3903 44.5165 44.1087V45.9945C43.8398 46.5473 43.4059 47.3912 43.4059 48.3369C43.4059 49.9297 44.6372 51.2343 46.1888 51.3397C46.6086 52.6397 47.492 53.7293 48.6411 54.41V55.01L45.3367 56.3168H45.3367ZM45.919 47.5947V49.0781C45.6774 48.9208 45.5169 48.6476 45.5169 48.3369C45.5169 48.0256 45.6776 47.7524 45.919 47.5947ZM61.0553 65.3548H55.0953H49.6966H48.5709H47.6261H47.3347V61.6437C47.3347 60.2525 47.0308 59.0845 46.5655 58.1196L49.0293 57.1451L51.144 59.2253C51.341 59.4192 51.6053 59.5273 51.8803 59.5273C51.8857 59.5273 51.8914 59.5273 51.8968 59.5273C52.1777 59.5233 52.4452 59.4054 52.6399 59.2014L54.6376 57.108L58.609 58.716C58.6276 58.7238 58.638 58.7275 58.6571 58.7343C58.755 58.7692 61.0554 59.6305 61.0554 62.6012V65.3548H61.0553H61.0553Z" fill="white"/>
</svg>
