<svg width="57" height="74" viewBox="0 0 57 74" fill="none" xmlns="http://www.w3.org/2000/svg">
<path fill-rule="evenodd" clip-rule="evenodd" d="M50.7724 67.546L55.004 67.4877L55.0938 72.0208L50.7791 72.0882C50.503 71.0464 50.5187 68.5519 50.7724 67.546ZM23.3733 16.0578C23.8223 16.6528 23.9974 16.9177 24.8594 17.25C25.3421 16.4328 26.9449 15.7435 28.449 15.7457C30.3953 15.748 31.1317 16.4934 32.2631 17.2568L33.536 16.0825C31.6233 13.3725 25.241 13.2512 23.371 16.0578H23.3733ZM18.448 11.1205L19.6422 12.3846C20.2012 11.967 20.5896 11.5134 21.2182 11.0756C21.84 10.6445 22.4888 10.2583 23.2139 9.92826C24.7966 9.20753 26.5341 8.7742 28.4513 8.7742C30.337 8.7742 32.1441 9.30408 33.5315 9.88336C35.7046 10.7904 36.1648 11.6818 37.2491 12.3711L38.4815 11.1519C37.698 10.063 35.855 8.91116 34.2745 8.2039C32.5505 7.43154 30.5682 6.95554 28.4535 6.95105C24.9604 6.94656 20.0486 8.81461 18.4502 11.116L18.448 11.1205ZM13.5226 6.18317L14.7147 7.44725C15.2579 7.07679 15.4061 6.9039 15.9 6.42566C16.9439 5.4153 18.8588 4.29716 20.2551 3.60337C22.4843 2.49422 25.378 1.83411 28.2245 1.80492C32.2878 1.76002 36.1737 2.96123 39.3346 5.17281L42.1362 7.41357L43.4023 6.21461C42.5695 5.00217 39.2268 2.77937 37.2423 1.87453C30.5345 -1.18576 22.3496 -0.456049 16.3737 3.74932C15.4802 4.37799 14.0569 5.45347 13.5226 6.18317ZM40.3627 67.5752L43.1083 67.5797L43.1689 71.9961L40.4772 72.0163L40.3627 67.5775V67.5752ZM45.0187 67.564L46.1748 67.5707L48.8103 67.5662L48.9697 69.4635L48.945 70.8106V72.0253L44.9828 72.0298L45.0187 67.564ZM26.5498 67.1823L29.2145 67.1845L29.2168 72.0298L26.5566 72.0365L26.5498 67.1845V67.1823ZM50.6736 62.3685L55.0489 62.2944L55.0736 65.7341L50.7701 65.8149L50.6758 62.3685H50.6736ZM44.9221 62.4156C45.9279 61.9958 47.9887 62.007 48.9764 62.4021L49.0034 65.7161C48.0695 66.026 45.8717 66.0125 44.976 65.7296L44.9221 62.4179V62.4156ZM40.3627 62.4044L43.1285 62.3909L43.1644 65.7139L40.4638 65.7521L40.3627 62.4066V62.4044ZM24.7427 67.8941L24.7449 72.0321L17.2065 72.0253L17.229 59.8358L38.5376 59.8426L38.5601 72.0096L31.0284 72.0321C30.97 64.7709 32.1756 65.2312 26.4084 65.3614C24.4419 65.4063 24.7404 66.136 24.7404 67.8963L24.7427 67.8941ZM50.7477 59.142L50.7567 56.8788L55.0265 56.8878L55.0332 60.561L54.701 60.5565H50.7499L50.7477 59.1376V59.142ZM44.985 59.142L44.9872 56.8856L48.9315 56.89L48.9473 60.5655L47.5195 60.5588L46.6215 60.561H44.9828V59.1443L44.985 59.142ZM40.3538 56.9215L43.1621 56.9125L43.1778 58.4685V59.3666V60.4735L40.3515 60.5655L40.3538 56.9237V56.9215ZM2.09381 62.8737V60.3567L9.37404 57.3032L9.40322 60.0626C7.71954 60.5229 3.32626 62.8849 2.09381 62.8737ZM17.22 55.15L38.5219 55.1432L38.5601 58.0172L17.2222 58.0261L17.2177 55.1477L17.22 55.15ZM50.7611 51.8068L55.031 51.6855L55.0242 55.1051L50.7791 55.0669L50.7634 51.8068H50.7611ZM44.9805 51.6945L48.9473 51.699L48.9383 55.1051L45.0097 55.0871L44.9828 51.6945H44.9805ZM40.3493 51.7215H43.1868L43.1711 55.022L40.3762 55.0916L40.3515 51.7215H40.3493ZM17.2065 51.5149L17.2492 50.4506L38.5062 50.4529L38.5668 53.3291L37.6486 53.3403L18.5759 53.338H17.9024H17.2088L17.2065 51.5171V51.5149ZM2.09381 54.5595V52.2716L9.38526 49.1978C9.41445 52.6263 9.96894 51.6159 5.91913 53.2101C4.87749 53.6187 3.0681 54.4203 2.09605 54.5595H2.09381ZM50.7746 46.2857L54.9838 46.2543L55.0152 49.8063L50.7881 49.8848L50.7769 46.2857H50.7746ZM44.9783 46.2341L48.9473 46.2296L48.9248 49.8983L45.0389 49.8893L44.9783 46.2363V46.2341ZM40.3762 46.261L43.1127 46.2498L43.1778 49.8399L40.4054 49.8893L40.3784 46.261H40.3762ZM17.2357 45.7513L38.4882 45.7581L38.5713 48.6208L17.2043 48.6387L17.2357 45.7513ZM40.3605 41.4112L55.031 41.5145L55.0287 44.4266L40.3493 44.3907L40.3582 41.4112H40.3605ZM17.2986 41.0655L38.5286 41.0632L38.5556 43.9417L17.1931 43.9349L17.2986 41.0655ZM2.14095 46.5394L2.07136 44.3817C4.01545 43.3916 7.23913 41.9052 9.39873 41.162L9.392 43.6587L2.14095 46.5394ZM40.3425 37.2822L49.4703 37.3743L49.4726 39.6712L40.3627 39.5881L40.3425 37.2822ZM17.321 36.3706L38.5219 36.3729L38.5646 39.2468L17.1908 39.2356L17.321 36.3706ZM1.84687 42.2847L1.86483 38.946L15.3522 32.9264L15.4083 71.9535L1.84687 72.0006C1.84462 70.8578 1.83115 69.7105 1.8334 68.5676C1.83789 67.2631 2.0736 66.3965 2.0983 65.0605C4.103 63.6775 9.42792 62.4965 11.0891 61.0932C11.3294 59.7572 11.3047 56.3624 11.0442 55.2083C9.06873 54.7234 4.26463 58.0015 2.07585 58.1901C2.11625 56.4343 1.81768 56.6633 3.42055 56.1154C4.59912 55.7113 10.8287 53.374 11.0667 52.9923C11.3698 51.6361 11.4259 48.0684 10.8512 47.1142C9.15179 46.6113 3.94361 50.0241 2.08258 50.0914L2.10952 48.5377C4.35443 47.4892 9.59404 45.9983 11.06 44.8981C11.2889 43.9327 11.2553 41.3551 11.2126 40.2707C11.1273 38.095 9.75118 38.9527 8.41771 39.5567C7.23913 40.091 2.75156 42.1948 1.84013 42.2824L1.84687 42.2847ZM43.4787 33.7078C44.4462 33.7033 45.5597 33.5371 46.3477 34.0109L46.3432 35.486L40.3448 35.4478L40.3515 33.7392C41.3909 33.6853 42.4348 33.7123 43.4764 33.7078H43.4787ZM17.2065 31.6623L38.5578 31.6781L38.5533 34.552L17.202 34.5385L17.2065 31.6623ZM17.2065 26.9675L38.5533 26.9832L38.5578 29.8549L17.2043 29.8459V26.9675H17.2065ZM17.2896 21.9808L38.5511 21.9853L38.4411 25.1444L17.2312 25.1489L17.2896 21.9786V21.9808ZM0.279921 58.2462C0.282166 61.8925 -0.276816 71.336 0.1789 73.5207C2.05564 74.2616 24.3296 73.853 28.4468 73.853C31.9578 73.853 55.3677 74.3402 56.5216 73.5409C57.3657 72.3486 56.8359 59.3553 56.8359 56.6767C56.8359 53.823 57.2085 41.29 56.535 39.761L51.2752 39.6869C51.264 35.2548 51.7803 35.4074 48.2379 35.477C47.9124 32.5515 48.8238 31.9026 46.6215 31.9026L40.4256 31.8981C40.127 29.7471 40.906 21.7114 40.0911 20.6045C39.6309 20.097 39.907 20.2093 39.0046 20.1464L17.4557 20.1621C15.7428 20.1621 15.4151 20.0746 15.4106 21.8932L15.4263 30.9147L2.84136 36.4425C-0.213959 37.848 0.0397158 36.539 0.0509404 42.5384L0.279921 58.2462Z" fill="white"/>
</svg>
