<svg width="59" height="74" viewBox="0 0 59 74" fill="none" xmlns="http://www.w3.org/2000/svg">
<path fill-rule="evenodd" clip-rule="evenodd" d="M35.4218 67.5737V64.5118C35.3847 62.9907 35.2094 61.2934 37.1673 62.0904C37.624 63.4123 37.3921 66.7517 37.424 68.4757C36.7796 69.0717 36.353 69.198 35.3935 69.5574L35.4218 67.5737ZM46.2912 46.4911C46.7391 47.6067 47.2241 48.0763 48.6421 47.8878C49.6777 47.2313 50.0548 47.1299 49.945 45.5909C49.4494 44.5715 48.9749 44.0911 47.6101 44.2263C46.7143 44.68 46.2894 45.1212 46.2912 46.4911ZM9.01668 45.3934C8.93171 47.0907 9.63273 48.1155 11.3481 47.8878C12.3235 47.3985 12.3271 47.4608 12.6988 46.3097C12.6882 44.7334 11.9305 44.2797 10.5055 44.1178C9.48934 44.9006 9.89473 44.2512 9.01491 45.3917L9.01668 45.3934ZM27.0255 31.9398C26.6768 33.6886 27.4291 34.1138 28.247 34.8148L29.4578 34.9785C30.1412 34.9216 29.8862 34.9447 30.4793 34.6992L31.1183 34.1032C31.3343 33.8256 31.4547 33.4805 31.5326 33.2919C31.876 31.422 30.6386 30.2514 28.9215 30.3172C27.9213 30.7068 27.4026 31.1907 27.0273 31.9398H27.0255ZM23.8992 22.6225H26.2307H29.279H31.6105H34.6589H36.9903L37.4506 22.6296L37.5497 22.3468L37.5267 20.1834H21.2102L21.2208 22.6296L23.8992 22.6225ZM21.1553 16.6571L37.5462 16.5967V14.2091L36.9903 14.1877H34.6571H31.6105H29.2773H26.2307H23.8975L21.1553 14.186V16.6571ZM21.0296 10.6331L26.5865 10.6811H28.9197H31.9663H34.2995L37.47 10.7505L37.4576 8.19211L21.0296 8.29174V10.6348V10.6331ZM24.7667 46.0072C24.7136 46.8683 24.5064 47.6582 24.6941 48.6261C24.8038 48.9695 25.0216 49.5761 25.2588 49.9782C25.6695 50.6792 25.8147 50.4995 26.1386 51.1382L26.2732 51.3446C27.4097 51.8427 27.6398 52.2341 29.2773 52.3053C30.4474 52.2662 30.8758 52.09 31.7326 51.6381L32.4266 51.1204C32.9169 50.3518 33.5294 50.0636 33.8428 48.7275C34.1136 47.5711 33.9136 46.3897 33.4869 45.5126C32.7257 43.9435 31.0528 42.6927 28.5603 42.9311C25.958 43.8171 26.0873 44.0644 24.7667 46.0055V46.0072ZM21.5129 62.2719C21.7006 61.9641 21.4545 62.1367 21.8829 61.9392C23.77 61.0728 23.3151 64.3873 23.3133 64.8712V67.2161L23.3204 69.3777C22.7468 69.1571 21.7785 68.7692 21.3501 68.296C21.235 66.919 21.0739 63.3323 21.5129 62.2719ZM17.8804 59.1353C17.4679 61.0425 17.6042 63.0067 17.544 65.0722L17.2661 64.5136C16.7899 64.0848 15.9773 63.0209 15.7773 62.2488L15.3967 61.4944L14.6142 59.331C13.784 57.084 13.784 53.0205 14.6142 50.7735L15.3967 48.5994L15.5118 48.4304C15.8074 47.6227 16.4323 46.2723 17.0891 45.7706C17.4236 45.171 17.8928 44.7014 18.2893 44.2512C18.507 43.73 18.4256 43.9008 18.9478 43.5094C19.3196 43.2318 19.4577 43.1179 19.8117 42.9098C20.1941 42.4081 20.5765 42.2586 21.0597 42.006C21.7484 41.3246 22.7592 40.9172 23.6797 40.5827C24.5277 39.9049 27.7495 39.4263 29.102 39.3818C29.9517 39.2715 31.3202 39.3409 32.0583 39.606C33.1949 39.6629 36.7655 40.7375 37.2133 41.4349C38.0401 41.7605 38.8137 42.3173 39.3217 42.8884C39.8634 43.0788 39.6174 42.7657 39.7236 43.2371C40.6618 43.8776 41.338 44.6569 42.0391 45.5909L42.7082 46.6993C43.2057 47.2081 43.4517 47.7205 43.712 48.4357C44.1262 49.0869 44.5298 50.471 44.7777 51.51L45.1406 53.8798L45.0379 57.3046L44.5989 59.315C44.3528 60.3024 43.8182 61.6884 43.3207 62.4285L42.8056 63.3074C42.4214 63.9389 41.6018 65.2092 41.115 65.5259L41.0353 60.0356L40.9698 59.5107C40.7645 58.9005 40.699 58.5767 40.4653 57.9664C40.2476 57.4025 40.0776 57.1285 39.8581 56.5823C38.341 55.1039 37.7869 53.919 34.6146 53.6628L31.6105 53.6521H29.2773H26.2307L23.3611 53.782C20.2348 54.4491 18.792 56.3243 17.8804 59.1336V59.1353ZM26.4378 37.2113C25.3473 37.4692 24.1683 37.7468 23.0088 38.1987C21.1412 38.9263 21.7236 38.9744 19.2364 38.9157C18.4132 38.6399 18.4097 38.3606 18.3867 37.4853V35.1404V32.0785V29.7337V26.6718V24.3269V21.2651V18.9202V15.8583V13.5134V10.4516V8.10672V5.04486C18.3583 3.83684 18.176 3.32267 18.9797 2.62348C19.9179 2.36551 38.865 2.40465 39.5749 2.64661C40.6069 3.26218 40.2157 5.37755 40.2157 6.66563C40.2157 11.6561 40.4423 37.4657 40.0351 38.1845C39.6333 39.348 37.8878 39.0598 37.1231 38.5243L35.5086 37.9194L34.6128 37.624C33.6109 37.487 32.161 37.2735 31.3414 36.9782L28.0222 37.0227L26.436 37.2077L26.4378 37.2113ZM42.5949 23.9693L42.6162 22.2151L45.0591 22.2133H48.1057H50.4389H53.4855L56.1763 22.3183C56.9234 23.0904 56.4613 27.9955 56.4932 29.3743C56.5463 31.7458 56.5268 34.1975 56.5162 36.5815C56.5074 38.6968 56.7765 49.932 56.2542 50.6934C55.0841 51.0919 48.9944 50.818 47.2118 50.818L46.4063 48.514C46.2116 48.1866 45.9885 47.5604 45.7495 47.08C45.4557 46.4876 45.3512 46.2367 44.9989 45.6621C44.5776 44.9753 43.5562 43.73 43.3561 43.1945C42.8445 42.9418 42.6923 42.5415 42.3896 42.1679C41.8691 42.1305 41.2725 41.3121 40.938 40.9047C41.3416 40.4012 41.7009 40.2678 42.0709 39.6896C43.0906 38.0937 41.4035 38.2983 45.4203 38.2983H47.7517H50.8001H53.1315L54.337 38.3108L54.4344 37.8411L54.4202 35.8841L42.5878 35.8609L42.6002 34.781L42.5985 33.5178H54.4167L54.4362 32.4361L54.4433 31.3562C54.0573 30.9168 54.3105 31.1071 53.4926 31.0787H50.4442H48.1128H45.0644L42.5914 31.084L42.6002 29.3743L42.733 28.7551L45.422 28.7498H47.7535H50.8018H53.1333L54.5459 28.7551L54.5247 26.4903V26.3871L42.602 26.3089V23.9675L42.5949 23.9693ZM4.4388 27.0312C4.46535 27.7695 4.28302 28.4669 4.71496 28.7498H7.76334H10.0948H13.1432L15.9579 28.7071C16.0145 29.1661 16.0393 29.6429 16.0322 30.109C16.0216 30.7958 16.2163 31.1231 15.6534 31.0787H12.7838H10.4524H7.40398H5.07255L4.60697 31.0716L4.51138 31.3562L4.53439 33.5196H15.9933L15.9685 35.8609L4.51492 35.8627L4.56803 38.2058L4.71319 38.3019H7.76157H10.093H13.1414H15.4728L15.9614 38.2734C16.1437 38.7217 16.1968 39.0224 16.3898 39.4209C16.5668 39.7857 16.7757 40.0152 16.9846 40.3123C17.0182 40.3336 17.0625 40.371 17.082 40.3852C17.1014 40.3995 17.1563 40.4404 17.1793 40.4582L18.0202 41.088L17.4838 41.6697C15.7684 43.2603 14.3115 45.5571 14.0354 45.7742L13.1024 47.6209L12.8581 48.3414C12.4775 49.3004 12.3341 49.9177 12.0633 50.8286L2.91815 50.8091L2.73935 50.64C2.09675 49.827 2.48266 45.0216 2.48266 43.6125C2.48266 41.2694 2.48266 38.9281 2.48266 36.585C2.48266 34.4465 2.2366 23.8377 2.58711 22.6652C2.96594 21.9269 4.09714 22.2258 5.06901 22.2169H7.40221H10.4488H12.782H15.8286C16.3137 22.5674 15.9897 25.4673 15.9897 26.3106L4.43172 26.3925L4.43703 27.0347L4.4388 27.0312ZM0.232667 51.3748C0.862878 52.2484 0.976175 52.606 2.05426 53.0828C3.96968 53.5649 9.29993 53.2251 11.626 53.2838L11.6614 56.4044L12.0474 59.1069C12.2492 60.1512 12.8227 61.3201 12.9644 62.1705L13.1237 62.3502C13.2742 62.7452 13.4299 63.1045 13.6388 63.4782C13.9504 64.0404 14.0495 63.9372 14.1433 64.567C14.6992 64.9637 15.1683 65.8746 15.6038 66.3674C17.714 68.7657 18.2096 69.1642 20.911 70.922C21.7997 71.26 22.4476 71.6692 23.423 72.0393C24.2692 72.3595 25.28 72.6495 26.2785 72.8399L28.3868 73.08C29.5393 73.2722 31.3644 73.1085 32.4832 72.9057C33.2373 72.726 33.9667 72.6015 34.7527 72.3506C35.5511 72.0962 36.284 71.7297 36.9938 71.5518C38.0224 71.0679 38.9783 70.4932 39.9502 69.8367C40.398 69.5343 40.8618 69.166 41.2779 68.8173C41.8072 68.3761 41.9683 68.0078 42.4976 67.6786C42.6569 67.394 42.425 67.4901 43.0127 67.2712C43.3101 66.6058 44.3138 65.5419 44.8573 64.6559C45.1937 64.1044 45.4273 63.7432 45.7088 63.1828C45.9124 62.7754 46.1461 62.0406 46.3549 61.7684L47.0701 59.4965C47.0861 59.4609 47.1215 59.4004 47.1339 59.372L47.2826 59.1424C47.2064 58.1746 47.5198 57.2388 47.5782 56.2318C47.6366 55.2355 47.5145 54.2214 47.6225 53.2322C49.4051 53.4244 52.1012 53.266 54.0272 53.2749C56.9747 53.2909 57.3447 53.4155 58.6335 51.462L58.8972 50.9443C58.6405 46.3168 58.8884 40.798 58.8884 36.0424C58.8884 31.664 59.2584 25.5296 58.6512 21.4857C58.0333 20.6868 57.389 19.8613 55.8311 19.8026C54.3848 19.7475 52.8022 19.8062 51.34 19.8062C48.8191 19.8062 44.8909 19.582 42.602 19.824V18.5644V16.2195V13.1576V10.8128V7.75089V5.40602L42.4126 2.38686L42.3754 2.14668C41.4832 1.12013 41.4885 0.901294 40.1962 0.259033C38.9588 -0.0523121 19.7126 -0.0985692 18.5725 0.20566C17.3298 0.538355 16.1791 1.74282 16.0181 3.25329L15.9986 19.8044C12.0013 19.8044 7.99879 19.8258 4.00331 19.8026C-0.806475 19.7759 0.0609517 22.941 0.0609517 27.7535C0.0609517 32.1604 -0.15679 48.2934 0.239748 51.3766L0.232667 51.3748Z" fill="white"/>
</svg>
