<svg width="21" height="22" viewBox="0 0 21 22" fill="none" xmlns="http://www.w3.org/2000/svg">
<path fill-rule="evenodd" clip-rule="evenodd" d="M2.36637 18.2929C2.6282 17.8501 3.03536 17.6259 3.22015 16.8734C3.41983 16.0607 3.18117 15.595 2.86686 14.9813C1.07459 11.4818 2.02286 7.40134 4.49587 4.88248C8.29767 1.0104 15.0078 1.45713 18.1904 6.49927C18.4582 6.92343 18.7603 7.51899 18.943 8.05276C19.38 9.32976 19.5863 10.55 19.4302 12.0112C19.2034 14.133 18.2854 15.9646 16.7977 17.3505C14.9077 19.1113 12.4175 20.2717 9.18507 19.7067C5.59693 19.0796 5.87248 17.478 4.32528 18.054C3.75776 18.2653 3.01255 18.3669 2.36649 18.2927L2.36637 18.2929ZM0.497532 12.207C0.596443 12.9994 0.741551 13.6743 0.98336 14.3977C1.74288 16.6693 2.49333 16.2409 0.507772 17.7754C-0.0471779 18.2043 -0.0982626 19.0722 0.526856 19.4637C0.958458 19.7341 2.3182 19.8461 2.92714 19.8292C4.59455 19.7832 4.53625 19.2751 5.15311 19.6953C10.071 23.0448 16.9674 21.0918 19.7397 16.0094C20.3668 14.8598 20.8306 13.4274 20.9643 11.8811C21.3467 7.46081 18.6065 3.28524 14.9694 1.73304C7.05488 -1.64461 -0.411637 4.92787 0.497415 12.2071L0.497532 12.207Z" fill="#4978BF"/>
<path fill-rule="evenodd" clip-rule="evenodd" d="M7.89564 11.8775C7.89738 11.3859 7.86212 10.7149 8.25114 10.5207C9.12481 10.0846 8.9377 11.4492 8.93653 12.3716C8.93397 14.4663 10.2739 14.0388 10.2726 12.7011L10.2722 11.7129C10.2721 11.0874 10.3334 10.2887 11.1268 10.5148C11.3844 10.687 11.2935 12.4104 11.2933 12.7833C11.2925 14.2179 12.638 14.0319 12.6377 12.8657C12.6371 11.3454 12.8962 9.91526 11.8097 9.5039C10.9184 9.16644 10.4921 9.60119 10.0086 9.86825C8.83029 9.08405 8.93979 9.34402 7.78532 9.75781C7.15276 9.04193 6.57023 9.37299 6.57 10.3129L6.56988 11.4657C6.5693 12.4766 6.37508 13.7396 7.21268 13.7658C8.04959 13.7919 7.89529 12.7327 7.89564 11.8775Z" fill="#4978BF"/>
<path fill-rule="evenodd" clip-rule="evenodd" d="M14.9977 10.4781C16.2499 10.0336 16.4005 12.3145 15.5578 12.6571C14.8481 12.9457 14.4816 12.4405 14.4047 11.8602C14.3146 11.1808 14.455 10.6708 14.9978 10.4783L14.9977 10.4781ZM13.1231 12.0424C13.296 13.1699 14.3249 13.9557 15.6658 13.741C16.8302 13.5546 17.56 12.4866 17.3497 11.1355C16.9384 8.49375 12.6328 8.84692 13.123 12.0424H13.1231Z" fill="#4978BF"/>
<path fill-rule="evenodd" clip-rule="evenodd" d="M4.57733 10.7248C4.57803 11.9588 4.30445 13.8766 5.30206 13.7601C6.02655 13.6755 5.86946 12.63 5.86818 11.7953C5.86678 10.7928 6.09928 9.11376 5.01242 9.42213C4.51891 9.56211 4.5771 10.152 4.57733 10.7248Z" fill="#4978BF"/>
<path fill-rule="evenodd" clip-rule="evenodd" d="M5.00476 7.9936C4.14703 8.37645 4.70082 9.47134 5.53248 9.1426C6.18216 8.88578 5.80478 7.63659 5.00476 7.9936Z" fill="#4978BF"/>
</svg>
