<svg width="22" height="22" viewBox="0 0 22 22" fill="none" xmlns="http://www.w3.org/2000/svg">
<path fill-rule="evenodd" clip-rule="evenodd" d="M17.6611 4.97864C17.6611 5.68646 17.0873 6.26013 16.3796 6.26013C15.6719 6.26013 15.0981 5.68646 15.0981 4.97864C15.0981 4.27081 15.6719 3.69714 16.3796 3.69714C17.0874 3.69714 17.6611 4.27081 17.6611 4.97864ZM10.6791 14.2388C8.71316 14.2388 7.11947 12.6451 7.11947 10.6791C7.11947 8.71316 8.71316 7.11947 10.6791 7.11947C12.6451 7.11947 14.2388 8.71316 14.2388 10.6791C14.2388 12.6451 12.6451 14.2388 10.6791 14.2388ZM10.6791 5.19522C7.65042 5.19522 5.19522 7.65042 5.19522 10.6791C5.19522 13.7078 7.65042 16.163 10.6791 16.163C13.7078 16.163 16.163 13.7078 16.163 10.6791C16.163 7.65042 13.7078 5.19522 10.6791 5.19522ZM10.6791 1.92424C13.5306 1.92424 13.8683 1.93509 14.9943 1.98648C16.0355 2.03404 16.601 2.20791 16.9773 2.35424C17.4757 2.54797 17.8315 2.77941 18.2052 3.15318C18.579 3.52678 18.8104 3.88253 19.0042 4.38111C19.1503 4.75738 19.3244 5.32287 19.3719 6.36409C19.4233 7.49023 19.4342 7.82796 19.4342 10.6795C19.4342 13.5309 19.4233 13.8687 19.3719 14.9946C19.3244 16.0359 19.1505 16.6014 19.0042 16.9776C18.8104 17.476 18.579 17.8318 18.2052 18.2056C17.8316 18.5793 17.4759 18.8108 16.9773 19.0045C16.601 19.1507 16.0355 19.3247 14.9943 19.3723C13.8683 19.4236 13.5306 19.4345 10.6791 19.4345C7.82746 19.4345 7.48973 19.4236 6.36375 19.3723C5.32254 19.3247 4.75705 19.1508 4.38077 19.0045C3.88236 18.8108 3.52661 18.5793 3.15284 18.2056C2.77924 17.832 2.54764 17.4762 2.35391 16.9776C2.20774 16.6014 2.0337 16.0359 1.98615 14.9946C1.93476 13.8685 1.92391 13.5308 1.92391 10.6795C1.92391 7.82796 1.93476 7.49023 1.98615 6.36409C2.0337 5.32287 2.20757 4.75738 2.35391 4.38111C2.54764 3.88269 2.77907 3.52695 3.15284 3.15318C3.52645 2.77941 3.88219 2.54797 4.38077 2.35424C4.75705 2.20807 5.32254 2.03404 6.36375 1.98648C7.4899 1.93509 7.82763 1.92424 10.6791 1.92424ZM10.6791 0C7.7789 0 7.41515 0.0123477 6.27615 0.0642416C5.13949 0.116135 4.36309 0.296679 3.68396 0.560654C2.98164 0.833472 2.38612 1.19873 1.79242 1.79242C1.19873 2.38612 0.833472 2.98164 0.560654 3.68396C0.296679 4.36325 0.116135 5.13949 0.0642416 6.27615C0.0123477 7.41515 0 7.7789 0 10.6791C0 13.5793 0.0123477 13.9431 0.0642416 15.0821C0.116135 16.2187 0.296679 16.995 0.560654 17.6743C0.833472 18.3766 1.19873 18.9721 1.79242 19.5658C2.38612 20.1595 2.98164 20.5246 3.68396 20.7976C4.36325 21.0616 5.13949 21.2421 6.27615 21.294C7.41515 21.3459 7.7789 21.3582 10.6791 21.3582C13.5793 21.3582 13.9431 21.3459 15.0821 21.294C16.2187 21.2421 16.995 21.0616 17.6743 20.7976C18.3766 20.5246 18.9721 20.1595 19.5658 19.5658C20.1595 18.9721 20.5246 18.3766 20.7976 17.6743C21.0616 16.995 21.2421 16.2187 21.294 15.0821C21.3459 13.9431 21.3582 13.5793 21.3582 10.6791C21.3582 7.7789 21.3459 7.41515 21.294 6.27615C21.2421 5.13949 21.0616 4.36325 20.7976 3.68396C20.5246 2.98164 20.1595 2.38612 19.5658 1.79242C18.9721 1.19873 18.3766 0.833639 17.6743 0.560654C16.995 0.296679 16.2187 0.116135 15.0821 0.0642416C13.9431 0.0123477 13.5793 0 10.6791 0Z" fill="#4978BF"/>
</svg>
