<svg width="17" height="21" viewBox="0 0 17 21" fill="none" xmlns="http://www.w3.org/2000/svg">
<path fill-rule="evenodd" clip-rule="evenodd" d="M8.5 20.0724L9.25133 19.2249C10.1035 18.2497 10.8705 17.3221 11.5523 16.4419L12.1158 15.6991C14.4672 12.5306 15.6429 10.0172 15.6429 8.15887C15.6429 4.19199 12.4449 0.976196 8.5 0.976196C4.55511 0.976196 1.35714 4.19199 1.35714 8.15887C1.35714 10.0172 2.53284 12.5306 4.88422 15.6991L5.44772 16.4419C6.32427 17.5736 7.3417 18.7837 8.5 20.0724Z" stroke="#BC842F" stroke-linecap="round" stroke-linejoin="round"/>
<path d="M8.5 11.0952C10.1437 11.0952 11.4762 9.76272 11.4762 8.11901C11.4762 6.47531 10.1437 5.14282 8.5 5.14282C6.8563 5.14282 5.52381 6.47531 5.52381 8.11901C5.52381 9.76272 6.8563 11.0952 8.5 11.0952Z" stroke="#BC842F" stroke-linecap="round" stroke-linejoin="round"/>
</svg>
