<svg width="16" height="20" viewBox="0 0 16 20" fill="none" xmlns="http://www.w3.org/2000/svg">
<path fill-rule="evenodd" clip-rule="evenodd" d="M2.06554 6.62551C2.73421 10.8715 4.95983 14.7246 8.31319 17.4176L8.32369 17.4261L8.96713 17.9623C9.78635 18.645 10.9702 18.6578 11.8039 17.9929L13.5076 16.6343C13.6117 16.5513 13.6329 16.4011 13.5558 16.2924L11.8991 13.9543C11.8168 13.838 11.6546 13.814 11.5422 13.9014L10.3928 14.7956C10.1136 15.0127 9.72131 15.0049 9.45095 14.7769C6.9663 12.6818 5.32125 9.74139 4.83235 6.52137C4.77914 6.17093 4.97672 5.83069 5.30676 5.70448L6.66569 5.18477C6.79848 5.134 6.86245 4.98247 6.80645 4.85139L5.67974 2.21412C5.62737 2.09155 5.48863 2.03151 5.36389 2.07743L3.31056 2.83337C2.30457 3.20372 1.69836 4.23477 1.86161 5.29773L2.06531 6.62409L2.06554 6.62551ZM7.37063 18.5889C3.72758 15.661 1.31 11.4735 0.583695 6.85905L0.583244 6.85631L0.379127 5.52713C0.107034 3.75552 1.11739 2.0371 2.79403 1.41984L4.84736 0.663908C5.72057 0.342432 6.69176 0.762738 7.05833 1.62074L8.18501 4.258C8.57707 5.17561 8.12925 6.23623 7.1998 6.59172L6.4211 6.88953C6.91669 9.31696 8.15781 11.5354 9.96469 13.2237L10.6234 12.7113C11.4096 12.0997 12.5449 12.2681 13.1215 13.0817L14.7782 15.4198C15.3175 16.1808 15.1692 17.2322 14.4407 17.8131L12.737 19.1718C11.3475 20.2799 9.37437 20.2585 8.00895 19.1208L7.37063 18.5889Z" fill="#BC842F"/>
</svg>
