<svg width="25" height="21" viewBox="0 0 25 21" fill="none" xmlns="http://www.w3.org/2000/svg">
<path fill-rule="evenodd" clip-rule="evenodd" d="M9.42554 13.3173L9.42522 13.317L9.42558 13.3167L9.4256 13.3164L9.42577 13.3165L19.6845 4.0589C20.1347 3.65919 19.586 3.46449 18.9883 3.82696L6.32707 11.8148L0.858118 10.1077C-0.322769 9.74615 -0.331434 8.93455 1.12324 8.35102L22.4345 0.133487C23.408 -0.308447 24.3474 0.367452 23.9758 1.85716L20.3465 18.9598C20.093 20.175 19.3589 20.4658 18.3413 19.9044L12.8127 15.8197L10.1553 18.4037C10.1469 18.4119 10.1384 18.4201 10.1301 18.4283C9.83288 18.7176 9.58705 18.9568 9.04911 18.9568L9.42554 13.3173Z" fill="#4978BF"/>
</svg>
