<svg width="18" height="18" viewBox="0 0 18 18" fill="none" xmlns="http://www.w3.org/2000/svg">
<path d="M9.00068 0C4.03816 0 0.00100708 4.03737 0.00100708 8.99989C0.00100708 13.9626 4.03816 18 9.00068 18C13.9632 18 18.0006 13.9626 18.0006 8.99989C18.0006 4.03737 13.963 0 9.00068 0ZM9.00068 16.6988C4.75577 16.6988 1.30198 13.245 1.30198 8.99989C1.30198 4.75476 4.75555 1.30119 9.00068 1.30119C13.2458 1.30119 16.6994 4.75476 16.6994 8.99989C16.6994 13.245 13.2458 16.6988 9.00068 16.6988Z" fill="#BC842F"/>
<path d="M11.604 9.82837C11.6005 9.82837 11.5975 9.82837 11.594 9.82837L9.65049 9.85743V4.77108C9.65049 4.41173 9.35924 4.12048 8.9999 4.12048C8.64055 4.12048 8.3493 4.41173 8.3493 4.77108V10.518C8.3493 10.5193 8.34974 10.5206 8.34974 10.5219C8.34974 10.5241 8.3493 10.526 8.3493 10.5278C8.34974 10.5542 8.35473 10.5792 8.3582 10.6045C8.36036 10.6204 8.36058 10.6366 8.36362 10.6522C8.36947 10.6802 8.37923 10.7062 8.38856 10.7325C8.39333 10.7461 8.39636 10.7605 8.402 10.7735C8.41328 10.8001 8.42846 10.8244 8.44299 10.8494C8.44971 10.8604 8.4547 10.8726 8.46186 10.8834C8.47834 10.9075 8.49807 10.929 8.51759 10.9509C8.52583 10.96 8.53255 10.9704 8.54123 10.9793C8.56227 11.0001 8.5859 11.0177 8.60954 11.0357C8.61908 11.0428 8.62754 11.0515 8.6373 11.0582C8.66289 11.0756 8.69087 11.0892 8.71884 11.1027C8.7286 11.1072 8.73728 11.1137 8.74725 11.1178C8.77978 11.1315 8.81448 11.141 8.84961 11.1495C8.85612 11.151 8.86219 11.1541 8.86891 11.1554C8.91098 11.1638 8.95457 11.1686 8.99925 11.1686C9.0025 11.1686 9.00597 11.1686 9.00922 11.1686L11.6133 11.1296C11.9725 11.1241 12.2594 10.8283 12.2542 10.4692C12.2492 10.1133 11.9588 9.82837 11.604 9.82837Z" fill="#BC842F"/>
</svg>
