<svg width="15" height="15" viewBox="0 0 15 15" fill="none" xmlns="http://www.w3.org/2000/svg">
<path fill-rule="evenodd" clip-rule="evenodd" d="M2.29303 5.18215C3.60205 8.22074 6.08866 10.9404 9.2689 12.7992L9.27887 12.8051L9.89264 13.1758C10.6741 13.6477 11.6261 13.6292 12.174 13.1315L13.2936 12.1145C13.362 12.0523 13.3517 11.9438 13.2701 11.8674L11.5156 10.2242C11.4283 10.1425 11.2939 10.129 11.2196 10.1945L10.4602 10.8645C10.2757 11.0272 9.95956 11.0308 9.70118 10.8731C7.32665 9.42411 5.47188 7.34743 4.49375 5.04262C4.3873 4.79178 4.4839 4.54242 4.72571 4.44393L5.72136 4.03835C5.81865 3.99872 5.8424 3.88824 5.77362 3.79525L4.38985 1.92453C4.32553 1.83758 4.2033 1.79763 4.11158 1.83358L2.60184 2.4253C1.86217 2.7152 1.56344 3.47101 1.88783 4.23182L2.29259 5.18114L2.29303 5.18215ZM8.72586 13.6638C5.27046 11.6427 2.56902 8.68708 1.14671 5.38475L1.14585 5.3828L0.740242 4.43145C0.1996 3.16345 0.697483 1.90375 1.93026 1.42059L3.44 0.828864C4.08204 0.577224 4.93765 0.856874 5.38785 1.46549L6.7716 3.33622C7.2531 3.98711 7.08681 4.7605 6.40585 5.03792L5.83533 5.27033C6.6746 7.00486 8.07395 8.57166 9.83072 9.74385L10.2659 9.35993C10.7854 8.90161 11.7268 8.99621 12.3374 9.56796L14.092 11.2111C14.663 11.7459 14.7354 12.5057 14.2567 12.9406L13.1371 13.9577C12.224 14.7872 10.6372 14.818 9.33473 14.0314L8.72586 13.6638Z" fill="white"/>
</svg>
