<svg width="23" height="23" viewBox="0 0 23 23" fill="none" xmlns="http://www.w3.org/2000/svg">
<path fill-rule="evenodd" clip-rule="evenodd" d="M11.5 20.3065L12.1912 19.5268C12.9753 18.6297 13.6809 17.7763 14.3081 16.9665L14.8265 16.2831C16.9898 13.3681 18.0714 11.0558 18.0714 9.3461C18.0714 5.69657 15.1293 2.73804 11.5 2.73804C7.8707 2.73804 4.92857 5.69657 4.92857 9.3461C4.92857 11.0558 6.01021 13.3681 8.17349 16.2831L8.6919 16.9665C9.49833 18.0076 10.4344 19.121 11.5 20.3065Z" stroke="white" stroke-linecap="round" stroke-linejoin="round"/>
<path d="M11.5 12.0475C13.0122 12.0475 14.2381 10.8216 14.2381 9.30938C14.2381 7.79718 13.0122 6.57129 11.5 6.57129C9.9878 6.57129 8.76191 7.79718 8.76191 9.30938C8.76191 10.8216 9.9878 12.0475 11.5 12.0475Z" stroke="white" stroke-linecap="round" stroke-linejoin="round"/>
</svg>
