<svg width="143" height="166" viewBox="0 0 143 166" fill="none" xmlns="http://www.w3.org/2000/svg">
<path fill-rule="evenodd" clip-rule="evenodd" d="M88.67 62.4324C85.08 73.1125 85.18 77.2375 94.42 84.1649C93.01 85.0076 92.09 85.6934 91.56 86.3891C89.98 88.4467 92.5 91.6312 92.65 94.796C92.75 97.0692 92.68 96.5107 90.58 97.7649C82.76 85.6052 76.91 74.2785 88.67 62.4324Z" fill="#172D61"/>
<path fill-rule="evenodd" clip-rule="evenodd" d="M66.67 101.87C64.47 91.0825 63.83 83.3418 67.18 74.6802C71.34 63.9119 79.06 57.0237 91.63 60.7764C94.69 61.6877 96.61 63.8923 96.61 69.056C99.89 63.6375 100.42 60.6785 99.14 56.9845C98.62 55.4854 97.8 53.8687 96.75 51.909C95.03 48.7246 95.4 48.2837 98.07 45.8047C90.17 37.8779 84.75 33.6647 78.15 32.9298C66.08 31.5776 53.58 40.3765 44.77 47.588C56.62 41.5033 74.6 37.5742 84.74 49.1067C83.53 50.3021 82.31 51.4975 81.09 52.6929C80.85 51.4093 80.61 50.1257 80.36 48.8422C76.75 55.1424 69.79 51.6445 71.51 44.6387C57.81 46.3436 52.38 46.2848 42.22 56.0243C38.5 59.6007 36.53 62.3932 35.9 65.3718C34.75 70.8687 39.1 80.9707 42.31 85.6248C49.24 82.8519 50.78 85.6346 48.46 92.2289C55.94 97.7649 57.94 98.6663 66.67 101.87ZM60.88 79.0208C65.13 64.4998 69.05 58.1603 83.78 57.9643C82.49 56.8571 81.2 55.7597 79.91 54.6525C75.06 56.7396 71.05 56.7396 68.45 51.7522C57.35 58.5326 57.82 67.645 60.88 79.0208Z" fill="#172D61"/>
<path fill-rule="evenodd" clip-rule="evenodd" d="M73.54 44.2566C76.08 45.2854 77.27 45.8537 79.56 47.3235C77.57 52.2814 71.31 50.0376 73.54 44.2566ZM75.21 46.3142C76.3 46.7356 76.81 46.667 77.15 47.3137C77.59 48.1465 76.74 48.8226 76.07 48.7736C75.13 48.6952 74.53 47.931 74.72 47.1275C74.79 46.8531 74.94 46.5788 75.21 46.3142Z" fill="#2950AD"/>
<path fill-rule="evenodd" clip-rule="evenodd" d="M58.1 20.5253C48.69 22.5731 44.63 28.6088 48.03 36.4866C48.9 38.4953 49.66 38.2503 48.38 39.8866C45.45 43.61 40.46 33.2924 30.87 44.2566C29.92 43.2278 28.96 42.199 28.01 41.1702C35.19 36.2417 36.14 34.7229 44.56 37.0353C41.94 27.7564 45.45 21.2405 54.71 18.0267C54.71 7.98349 63.15 8.59098 70.36 0.771973C77.08 10.5016 83.65 4.47571 88.64 17.3604C87.41 17.6544 86.18 17.9483 84.95 18.2423C81.53 9.0711 75.94 11.7558 69.91 5.64171C65.38 11.0699 54.97 10.874 58.1 20.5253Z" fill="#172D61"/>
<path fill-rule="evenodd" clip-rule="evenodd" d="M55.69 22.5143C55.12 23.4746 54.54 24.4348 53.96 25.395C54.89 25.9535 55.82 26.5218 56.75 27.0901C57.2 27.727 57.65 28.3639 58.1 29.0008C62.21 17.2821 64.66 24.0624 70.74 16.6256C76.11 22.5143 80.73 20.6135 82.47 28.9322C87.51 24.0722 92.24 21.3581 97.5 21.4757C106.96 21.6815 115 29.7748 115.19 39.9846C116.17 41.1212 117.15 42.248 118.13 43.3748C118.35 22.9258 99.65 11.4227 83.82 23.259C79.68 18.4578 73.53 17.3898 70.51 12.863C66.83 19.3201 62.28 16.4982 57.2 23.4746C56.7 23.161 56.19 22.8377 55.69 22.5143Z" fill="#2950AD"/>
<path fill-rule="evenodd" clip-rule="evenodd" d="M47.27 17.5073L44.86 21.1915C24.28 20.7701 19.05 38.9655 33.43 53.6237C16.25 57.5038 15.83 71.4173 32.53 75.8756C14.21 100.773 39.57 116.078 58.46 101.322C60.48 108.974 66.06 107.308 70.96 113.246C73.75 109.885 76.45 109.572 80.06 106.466L80.74 109.856C76.14 113.158 74.59 111.678 71.34 116.117C68.24 112.972 61.43 109.993 56.97 106.544C35.6 118.802 12.84 100.165 26.96 76.9828C13.89 71.143 13.7 57.9447 26.66 51.4877C17 32.0969 24.88 17.5073 47.27 17.5073Z" fill="#2950AD"/>
<path fill-rule="evenodd" clip-rule="evenodd" d="M22.67 51.7034C22.67 50.6452 22.67 49.587 22.67 48.5386C12.56 49.1951 15.4 57.9253 5.66998 64.157C11.59 68.3507 15.86 76.2579 21.47 82.1466C22.22 80.863 22.97 79.5893 23.72 78.3155C17.62 73.7201 16.22 70.1535 11.84 64.3824C15.92 60.0613 16.2 51.9582 22.67 51.7034Z" fill="#172D61"/>
<path fill-rule="evenodd" clip-rule="evenodd" d="M82.77 105.104C91.4 104.634 96.38 97.3731 92.99 90.6809C92.33 89.3875 91.77 87.6336 92.82 86.35C94.04 84.8705 96.5 85.478 97.96 86.1835C103.05 88.6722 104.89 87.4572 110.23 84.4296C111.03 85.2918 111.83 86.1541 112.64 87.0065C106.07 90.3183 104.44 91.0826 97.07 89.9558C98.05 99.6071 96.4 104.095 86.76 108.161C86.76 119.047 76.14 117.371 70.74 125.778C65.75 119.409 59.13 117.597 52.91 112.727C53.81 112.139 54.72 111.551 55.62 110.963C61.19 115.608 65.76 115.745 70.44 120.321C77.65 114.461 84.77 116.578 82.77 105.104Z" fill="#172D61"/>
<path fill-rule="evenodd" clip-rule="evenodd" d="M50.28 103.222C49.33 103.712 48.37 104.202 47.42 104.702C44.57 99.6167 42.01 96.8438 44.72 91.0629C45.54 89.3188 44.79 89.2894 43.36 89.8871C37.71 91.7781 33.45 89.4853 28.92 86.3499C29.74 85.4093 30.57 84.4784 31.4 83.5476C36.84 88.1724 38.69 87.9862 44.79 85.7718C46.4 85.1937 47.5 85.4877 48.07 86.3205C49.18 87.9372 48.09 89.9165 47.55 91.5234C45.96 96.1971 47.26 98.7349 50.28 103.222Z" fill="#172D61"/>
<path fill-rule="evenodd" clip-rule="evenodd" d="M89.54 110.591C90 109.689 90.45 108.778 90.9 107.867C111.57 113.364 123.25 92.1896 107.37 75.7285C113.35 75.5228 119.53 71.9758 119.99 65.6853C120.52 58.3464 112.46 54.8092 106.39 53.5453C109.07 52.634 109.95 52.3891 111.43 52.4283C118.22 52.5752 123.91 60.1297 123.04 66.6161C122.47 70.8784 119.33 74.9937 113.84 78.1683C125.52 97.8236 110.88 117.028 89.54 110.591Z" fill="#2950AD"/>
<path fill-rule="evenodd" clip-rule="evenodd" d="M119.63 80.373C119.03 79.4911 118.43 78.6093 117.83 77.7274C125.11 71.7995 124.97 69.2911 130.39 63.3534C124.42 55.2502 124.89 50.2139 113.84 50.743C113.45 46.0889 111.41 42.6693 108.25 40.9546C102.29 37.7211 95.43 42.6007 94.04 40.5234C92.55 38.2894 95.73 34.4583 95.71 31.6756C95.69 30.1569 95.1 28.6186 93.83 26.6491C94.74 25.8065 95.64 24.9736 96.54 24.1407C97.91 27.09 98.7 29.0105 98.76 31.2249C98.86 35.1442 95.98 37.7505 99.85 37.0549C103.91 36.3298 107.53 36.7119 110.42 38.309C113.43 39.9845 115.64 42.9828 116.7 47.4312C130.76 47.4312 125.88 55.8577 136.71 63.0594C129.25 68.2819 128.09 74.2001 119.63 80.373Z" fill="#172D61"/>
<path d="M21.44 151.959L19.84 146.394H11.97L10.26 151.959H3.07001L12.01 123.623H21.39L30.49 151.959H21.44ZM13.58 140.182H18.21L15.89 131.98L13.58 140.182ZM30.9 145.963L37.57 145.071C37.96 146.599 39.47 147.364 42.13 147.364C44.32 147.364 45.42 146.952 45.42 146.119C45.42 145.757 45.21 145.482 44.78 145.277C44.36 145.081 43.35 144.875 41.76 144.669C37.36 144.072 34.62 143.15 33.53 141.877C32.44 140.623 31.89 139.212 31.89 137.663C31.89 135.498 32.81 133.754 34.65 132.421C36.5 131.079 38.91 130.413 41.9 130.413C47.14 130.413 50.48 132.255 51.92 135.949L45.55 137.125C44.95 135.88 43.69 135.263 41.76 135.263C40.85 135.263 40.17 135.38 39.72 135.616C39.27 135.87 39.05 136.106 39.05 136.341C39.05 137.027 39.73 137.458 41.09 137.605C44.62 137.987 47.02 138.379 48.28 138.78C49.53 139.182 50.61 139.917 51.5 140.975C52.39 142.053 52.84 143.337 52.84 144.846C52.84 147.158 51.85 148.99 49.88 150.342C47.91 151.704 45.19 152.38 41.73 152.38C35.89 152.38 32.28 150.244 30.9 145.963ZM88.38 151.959H80.19V138.751C80.19 137.859 80.06 137.252 79.8 136.889C79.54 136.537 79.08 136.36 78.42 136.36C76.86 136.36 76.07 137.487 76.07 139.75V151.959H67.96V138.761C67.96 137.076 67.3 136.233 65.97 136.233C64.61 136.233 63.93 137.076 63.93 138.761V151.959H55.78V130.844H63.36V133.705C64.72 131.51 66.69 130.413 69.28 130.413C72.05 130.413 74.07 131.51 75.32 133.705C76.72 131.51 78.86 130.413 81.75 130.413C83.13 130.413 84.34 130.697 85.39 131.265C86.44 131.833 87.2 132.559 87.67 133.45C88.14 134.342 88.38 135.723 88.38 137.595V151.959ZM114.55 151.959H106.53C106.32 151.058 106.22 150.068 106.22 149C104.7 151.254 102.39 152.38 99.3 152.38C96.76 152.38 94.86 151.744 93.59 150.47C92.33 149.196 91.7 147.746 91.7 146.11C91.7 143.885 92.73 142.082 94.8 140.711C96.87 139.339 100.53 138.506 105.79 138.232V137.752C105.79 136.821 105.57 136.194 105.15 135.89C104.72 135.586 104.09 135.429 103.27 135.429C101.33 135.429 100.25 136.204 100.02 137.761L92.31 137.046C93.4 132.627 97.15 130.413 103.53 130.413C105.27 130.413 106.86 130.589 108.31 130.922C109.76 131.265 110.91 131.785 111.76 132.51C112.6 133.235 113.17 133.989 113.46 134.793C113.75 135.596 113.9 137.144 113.9 139.417V147.844C113.9 149.451 114.11 150.823 114.55 151.959ZM105.79 142.102C102.21 142.465 100.41 143.591 100.41 145.473C100.41 146.737 101.12 147.364 102.55 147.364C103.44 147.364 104.21 147.109 104.84 146.58C105.47 146.061 105.79 144.904 105.79 143.111V142.102ZM139.31 151.959H130.86V138.663C130.86 137.565 130.69 136.87 130.34 136.566C130 136.262 129.57 136.106 129.05 136.106C127.52 136.106 126.75 137.164 126.75 139.27V151.959H118.3V130.844H126.15V133.832C127.3 131.559 129.37 130.413 132.34 130.413C133.91 130.413 135.22 130.716 136.31 131.304C137.38 131.892 138.16 132.647 138.62 133.578C139.08 134.518 139.31 136.135 139.31 138.447V151.959Z" fill="#172D61"/>
<path d="M7.03 163.58V162.394H4.76V161.454H8.06V163.903C7.66 164.579 7.13 165.099 6.49 165.461C5.84 165.814 5.11 166 4.3 166C3.05 166 2.03 165.598 1.21 164.795C0.41 163.991 0 162.972 0 161.738C0 160.493 0.41 159.474 1.22 158.671C2.03 157.867 3.06 157.466 4.29 157.466C5.06 157.466 5.76 157.632 6.39 157.965C7.03 158.289 7.54 158.759 7.93 159.367L7.07 159.974C6.81 159.484 6.43 159.102 5.94 158.828C5.45 158.553 4.9 158.416 4.3 158.416C3.36 158.416 2.59 158.73 1.98 159.357C1.37 159.984 1.06 160.778 1.06 161.738C1.06 162.698 1.37 163.492 1.98 164.109C2.59 164.736 3.36 165.05 4.3 165.05C4.88 165.05 5.39 164.922 5.85 164.677C6.3 164.432 6.69 164.07 7.03 163.58ZM9.1 165.784V157.652H15.64V158.583H10.14V160.973H13.46V161.904H10.14V164.854H15.98V165.784H9.1ZM16.43 165.784V157.652H16.97L22.36 163.727V157.652H23.4V165.784H22.87L17.46 159.71V165.784H16.43ZM24.79 165.784V157.652H31.32V158.583H25.82V160.973H29.15V161.904H25.82V164.854H31.66V165.784H24.79ZM33.1 161.277H36.77C37.29 161.277 37.69 161.16 37.95 160.934C38.22 160.709 38.36 160.376 38.36 159.935C38.36 159.514 38.22 159.18 37.95 158.945C37.69 158.7 37.31 158.583 36.82 158.583H33.1V161.277ZM32.07 165.784V157.652H36.84C37.65 157.652 38.28 157.848 38.75 158.25C39.21 158.651 39.44 159.2 39.44 159.915C39.44 160.503 39.26 161.003 38.9 161.424C38.53 161.846 38.06 162.11 37.47 162.208L39.54 165.784H38.4L36.33 162.228H33.1V165.784H32.07ZM41.12 162.649H44.77L42.94 159.043L41.12 162.649ZM38.44 165.784L42.51 157.652H43.37L47.48 165.784H46.36L45.23 163.599H40.64L39.54 165.784H38.44ZM47.66 165.784V157.652H48.69V164.854H54.12V165.784H47.66ZM60.86 165.784V158.583H57.36V157.652H65.39V158.583H61.89V165.784H60.86ZM65.74 161.277H69.41C69.93 161.277 70.32 161.16 70.59 160.934C70.86 160.709 70.99 160.376 70.99 159.935C70.99 159.514 70.86 159.18 70.59 158.945C70.32 158.7 69.95 158.583 69.46 158.583H65.74V161.277ZM64.71 165.784V157.652H69.47C70.29 157.652 70.92 157.848 71.38 158.25C71.84 158.651 72.07 159.2 72.07 159.915C72.07 160.503 71.89 161.003 71.53 161.424C71.17 161.846 70.7 162.11 70.11 162.208L72.18 165.784H71.04L68.96 162.228H65.74V165.784H64.71ZM73.75 162.649H77.41L75.57 159.043L73.75 162.649ZM71.07 165.784L75.14 157.652H76L80.12 165.784H79L77.87 163.599H73.28L72.18 165.784H71.07ZM83.86 158.583H81.33V164.854H83.86C84.88 164.854 85.69 164.569 86.27 164.011C86.86 163.443 87.15 162.688 87.15 161.728C87.15 160.778 86.86 160.023 86.26 159.445C85.66 158.877 84.86 158.583 83.86 158.583ZM83.86 157.652C85.17 157.652 86.22 158.024 87.02 158.788C87.82 159.543 88.22 160.523 88.22 161.738C88.22 162.963 87.82 163.942 87.04 164.687C86.25 165.422 85.19 165.784 83.86 165.784H80.3V157.652H83.86ZM88.96 165.784V157.603H90.01V165.784H88.96ZM91.43 165.784V157.652H91.97L97.36 163.727V157.652H98.39V165.784H97.86L92.46 159.71V165.784H91.43ZM106.15 163.58V162.394H103.88V161.454H107.18V163.903C106.78 164.579 106.26 165.099 105.61 165.461C104.97 165.814 104.24 166 103.42 166C102.18 166 101.15 165.598 100.34 164.795C99.53 163.991 99.12 162.972 99.12 161.738C99.12 160.493 99.53 159.474 100.34 158.671C101.15 157.867 102.18 157.466 103.42 157.466C104.18 157.466 104.88 157.632 105.52 157.965C106.15 158.289 106.66 158.759 107.06 159.367L106.19 159.974C105.93 159.484 105.56 159.102 105.06 158.828C104.57 158.553 104.02 158.416 103.42 158.416C102.49 158.416 101.71 158.73 101.1 159.357C100.49 159.984 100.19 160.778 100.19 161.738C100.19 162.698 100.49 163.492 101.1 164.109C101.71 164.736 102.49 165.05 103.42 165.05C104 165.05 104.52 164.922 104.97 164.677C105.42 164.432 105.82 164.07 106.15 163.58ZM113.36 165.784V157.652H114.39V164.854H119.81V165.784H113.36ZM121.3 164.658C121.48 164.658 121.62 164.716 121.74 164.844C121.86 164.971 121.92 165.138 121.92 165.334C121.92 165.53 121.86 165.686 121.74 165.814C121.62 165.931 121.48 166 121.3 166C121.12 166 120.97 165.931 120.85 165.814C120.73 165.686 120.67 165.53 120.67 165.334C120.67 165.148 120.73 164.981 120.86 164.844C120.98 164.716 121.13 164.658 121.3 164.658ZM124.03 165.784V157.652H125.06V164.854H130.48V165.784H124.03ZM131.97 164.658C132.15 164.658 132.29 164.716 132.41 164.844C132.53 164.971 132.59 165.138 132.59 165.334C132.59 165.53 132.53 165.686 132.41 165.814C132.29 165.931 132.15 166 131.97 166C131.79 166 131.64 165.931 131.52 165.814C131.4 165.686 131.34 165.53 131.34 165.334C131.34 165.148 131.4 164.981 131.53 164.844C131.65 164.716 131.8 164.658 131.97 164.658ZM141.32 163.188L142.15 163.795C141.77 164.501 141.25 165.05 140.59 165.432C139.93 165.804 139.17 166 138.33 166C137.09 166 136.06 165.598 135.25 164.795C134.44 163.991 134.03 162.972 134.03 161.738C134.03 160.493 134.44 159.474 135.25 158.671C136.06 157.867 137.09 157.466 138.33 157.466C139.09 157.466 139.79 157.632 140.43 157.965C141.06 158.289 141.57 158.759 141.97 159.367L141.1 159.974C140.84 159.484 140.47 159.102 139.97 158.828C139.48 158.553 138.93 158.416 138.33 158.416C137.4 158.416 136.62 158.73 136.01 159.357C135.4 159.984 135.1 160.778 135.1 161.738C135.1 162.698 135.4 163.492 136.01 164.109C136.62 164.736 137.4 165.05 138.33 165.05C138.98 165.05 139.56 164.893 140.06 164.569C140.57 164.256 140.99 163.795 141.32 163.188Z" fill="#172D61"/>
</svg>
